<?xml version="1.0" encoding="iso-8859-1"?>
<!-- Generator: Adobe Illustrator 19.0.0, SVG Export Plug-In . SVG Version: 6.00 Build 0)  -->
<svg xmlns="http://www.w3.org/2000/svg" xmlns:xlink="http://www.w3.org/1999/xlink" version="1.1" id="Layer_1" x="0px" y="0px" viewBox="0 0 512 512" style="enable-background:new 0 0 512 512;" xml:space="preserve">
<path style="fill:#7F7494;" d="M418.728,380.013H137.794c-7.277,0-14.413-2.527-19.775-7.446  c-7.253-6.655-10.499-16.37-8.856-25.879l11.626-65.684l15.942,2.822l-11.62,65.651c-0.762,4.41,0.949,8.974,4.658,11.833  c2.201,1.696,4.955,2.514,7.733,2.514h283.25v14.166C420.752,379.107,419.845,380.013,418.728,380.013z"/>
<g style="opacity:0.32;">
	<polygon style="fill:#2D2128;" points="136.869,283.066 120.927,280.244 116.137,307.308 131.436,313.759  "/>
</g>
<path style="fill:#78777E;" d="M118.644,339.349h116.442h41.398h127.314c9.364,0,16.955,7.591,16.955,16.955v15.615H137.224  c-12.644,0-22.238-11.394-20.085-23.853L118.644,339.349"/>
<path style="fill:#D7D6D9;" d="M95.915,179.734L82.276,118.63c-0.282-1.265,0.68-2.465,1.975-2.465h96.167h39.019h281.539  c1.416,0,2.394,1.416,1.893,2.74l-64.58,170.681c-0.284,0.752-0.987,1.264-1.79,1.305l-312.227,15.887l-9.205-41.24L95.915,179.734z  "/>
<path style="opacity:0.32;fill:#2D2128;enable-background:new    ;" d="M501.004,116.166h-36.673l-54.746,144.69  c-0.284,0.752-0.988,1.264-1.79,1.305l-290.159,14.764l6.663,29.854l312.227-15.887c0.802-0.041,1.506-0.553,1.79-1.305  l64.58-170.681C503.398,117.582,502.42,116.166,501.004,116.166z"/>
<g>
	<path style="fill:#78777E;" d="M120.479,116.166l7.747-45.552c3.844-22.604-13.572-43.232-36.5-43.232H10.119   c-1.118,0-2.024,0.906-2.024,2.024v25.719c0,1.118,0.906,2.024,2.024,2.024h68.198c9.282,0,16.087,8.732,13.817,17.733   l-10.291,40.816c-0.077,0.307-0.082,0.627-0.013,0.936L120.479,116.166z"/>
	<circle style="fill:#78777E;" cx="143.684" cy="444.62" r="40.505"/>
</g>
<path style="opacity:0.13;fill:#2D2128;enable-background:new    ;" d="M163.515,408.846c3.016,5.666,4.73,12.131,4.73,18.999  c0,22.369-18.135,40.504-40.504,40.504c-6.867,0-13.331-1.715-18.999-4.73c6.808,12.792,20.271,21.505,35.772,21.505  c22.369,0,40.504-18.135,40.504-40.504C185.02,429.117,176.307,415.655,163.515,408.846z"/>
<g>
	<circle style="fill:#78777E;" cx="405.553" cy="444.62" r="40.505"/>
	<path style="fill:#78777E;" d="M491.419,149.168H89.092l-6.816-30.538c-0.282-1.265,0.68-2.465,1.975-2.465h416.725   c1.416,0,2.394,1.416,1.893,2.74L491.419,149.168z"/>
</g>
<g>
	<circle style="fill:#3F3C43;" cx="143.684" cy="444.62" r="17.864"/>
	<circle style="fill:#3F3C43;" cx="405.553" cy="444.62" r="17.864"/>
</g>
<path style="opacity:0.13;fill:#2D2128;enable-background:new    ;" d="M424.551,408.846c3.016,5.666,4.73,12.131,4.73,18.999  c0,22.369-18.135,40.504-40.504,40.504c-6.867,0-13.331-1.715-18.999-4.73c6.808,12.792,20.271,21.505,35.772,21.505  c22.369,0,40.504-18.135,40.504-40.504C446.056,429.117,437.343,415.655,424.551,408.846z"/>
<path d="M510.565,111.565c-1.512-2.189-4.001-3.494-6.66-3.494H219.437c-4.47,0-8.095,3.624-8.095,8.095  c0,4.47,3.624,8.095,8.095,8.095h272.75l-6.362,16.812H95.579l-3.753-16.812h88.591c4.47,0,8.095-3.624,8.095-8.095  c0-4.47-3.624-8.095-8.095-8.095h-50.351l6.139-36.099c2.233-13.13-1.414-26.495-10.005-36.672  c-8.592-10.176-21.157-16.013-34.475-16.013H8.095C3.624,19.288,0,22.913,0,27.383V57.15c0,4.47,3.624,8.095,8.095,8.095h70.222  c1.911,0,3.68,0.864,4.855,2.372c1.175,1.508,1.581,3.434,1.113,5.287l-10.409,41.283c-0.007,0.027-0.01,0.055-0.016,0.082  c-0.025,0.105-0.043,0.212-0.064,0.319c-0.036,0.181-0.071,0.362-0.095,0.543c-0.013,0.099-0.019,0.198-0.028,0.299  c-0.018,0.193-0.031,0.387-0.035,0.579c-0.002,0.092,0,0.185,0.001,0.277c0.003,0.202,0.012,0.404,0.03,0.604  c0.008,0.087,0.016,0.173,0.027,0.26c0.026,0.21,0.061,0.418,0.103,0.624c0.01,0.052,0.014,0.104,0.025,0.156l7.336,32.864  c0.001,0.006,0.003,0.012,0.004,0.018l6.849,30.686c0.842,3.77,4.185,6.333,7.892,6.333c0.584,0,1.178-0.064,1.771-0.196  c4.363-0.974,7.111-5.301,6.137-9.664l-4.622-20.708h380.507l-47.578,125.747l-301.439,15.338l-7.716-34.572  c-0.974-4.363-5.297-7.114-9.664-6.137c-4.363,0.973-7.111,5.3-6.137,9.663l8.856,39.677l-6.86,39.707  c-1.434,8.297,0.855,16.75,6.279,23.191c5.424,6.44,13.364,10.135,21.783,10.135H420.75c4.47,0,8.095-3.624,8.095-8.095V356.3  c0-13.812-11.237-25.05-25.049-25.05H276.484c-4.47,0-8.095,3.624-8.095,8.095s3.624,8.095,8.095,8.095h127.314  c4.885,0,8.859,3.975,8.859,8.86v7.52H137.224c-3.633,0-7.06-1.594-9.399-4.373c-2.34-2.78-3.328-6.426-2.709-10.007l0.345-2  h109.625c4.47,0,8.095-3.624,8.095-8.095c0-4.47-3.624-8.095-8.095-8.095H128.258l2.889-16.719l307.085-15.626  c3.212-0.164,6.022-2.213,7.16-5.22l66.085-174.659C512.417,116.544,512.077,113.753,510.565,111.565z M78.317,49.055H16.19V35.478  h75.535c8.539,0,16.595,3.742,22.104,10.266s7.847,15.095,6.415,23.513l-6.6,38.814H92.115l7.868-31.209  c1.696-6.727,0.224-13.724-4.04-19.196C91.678,52.194,85.254,49.055,78.317,49.055z"/>
<path d="M157.087,212.757c4.191,0,7.589-3.398,7.589-7.589c0-4.191-3.398-7.589-7.589-7.589H50.14c-4.191,0-7.589,3.398-7.589,7.589  c0,4.191,3.398,7.589,7.589,7.589H157.087z"/>
<path d="M135.633,235.617c0-4.191-3.398-7.589-7.589-7.589H21.098c-4.191,0-7.589,3.398-7.589,7.589  c0,4.191,3.398,7.589,7.589,7.589h106.947C132.237,243.206,135.633,239.809,135.633,235.617z"/>
<path d="M143.679,396.527c-26.519,0-48.093,21.574-48.093,48.093c0,26.519,21.574,48.093,48.093,48.093s48.093-21.574,48.093-48.093  C191.771,418.101,170.198,396.527,143.679,396.527z M143.679,477.533c-18.15,0-32.915-14.765-32.915-32.915  c0-18.15,14.765-32.915,32.915-32.915s32.915,14.765,32.915,32.915C176.593,462.768,161.828,477.533,143.679,477.533z"/>
<path d="M405.553,396.527c-26.519,0-48.093,21.574-48.093,48.093c0,26.519,21.574,48.093,48.093,48.093  c26.519,0,48.093-21.574,48.093-48.093C453.645,418.101,432.07,396.527,405.553,396.527z M405.553,477.533  c-18.15,0-32.915-14.765-32.915-32.915c0-18.15,14.765-32.915,32.915-32.915c18.15,0,32.915,14.765,32.915,32.915  C438.467,462.768,423.701,477.533,405.553,477.533z"/>
<path d="M143.679,419.166c-14.035,0-25.453,11.418-25.453,25.453c0,14.035,11.419,25.453,25.453,25.453  c14.034,0,25.453-11.419,25.453-25.453C169.132,430.585,157.714,419.166,143.679,419.166z M143.679,454.895  c-5.666,0-10.275-4.61-10.275-10.275c0-5.665,4.61-10.275,10.275-10.275s10.275,4.609,10.275,10.275  S149.345,454.895,143.679,454.895z"/>
<path d="M405.553,419.166c-14.035,0-25.453,11.418-25.453,25.453c0,14.035,11.419,25.453,25.453,25.453  c14.034,0,25.453-11.419,25.453-25.453C431.006,430.585,419.587,419.166,405.553,419.166z M405.553,454.895  c-5.666,0-10.275-4.61-10.275-10.275c0-5.665,4.61-10.275,10.275-10.275c5.665,0,10.275,4.609,10.275,10.275  S411.218,454.895,405.553,454.895z"/>
<g>
</g>
<g>
</g>
<g>
</g>
<g>
</g>
<g>
</g>
<g>
</g>
<g>
</g>
<g>
</g>
<g>
</g>
<g>
</g>
<g>
</g>
<g>
</g>
<g>
</g>
<g>
</g>
<g>
</g>
</svg>
